<svg width="32" height="29" viewBox="0 0 32 29" fill="none" xmlns="http://www.w3.org/2000/svg">
<g opacity="0.7">
<path d="M23.222 0C28.736 0 31.9943 3.16579 31.9943 8.54057V8.6002H25.2188C22.0658 8.60575 19.5115 11.0962 19.5058 14.1705C19.5015 17.2517 22.0587 19.7533 25.2188 19.7574H32V20.2469C32 25.6217 28.7417 28.8 23.2277 28.8H8.77369C3.25831 28.8 0 25.6217 0 20.2469V8.54057C0 3.16579 3.25831 0 8.77369 0H23.222ZM16.613 6.19984H7.58329C6.912 6.20263 6.36729 6.73373 6.36443 7.38963C6.3616 8.0483 6.90773 8.58495 7.58329 8.58772H16.6244C17.2999 8.58495 17.846 8.0483 17.8432 7.38824C17.8404 6.72957 17.2885 6.19708 16.613 6.19984Z" fill="#229CE1"/>
<path opacity="0.4" d="M22.4599 14.8747C22.7945 16.3966 24.1288 17.4674 25.6522 17.4395H30.8521C31.4859 17.4395 32 16.9146 32 16.2657V12.2152C31.9987 11.5678 31.4859 11.0414 30.8521 11.04H25.5298C23.7969 11.0456 22.3973 12.484 22.4 14.2565C22.4 14.464 22.4204 14.6714 22.4599 14.8747Z" fill="#229CE1"/>
<path d="M25.6 15.8401C26.4837 15.8401 27.2 15.1238 27.2 14.2401C27.2 13.3565 26.4837 12.6401 25.6 12.6401C24.7163 12.6401 24 13.3565 24 14.2401C24 15.1238 24.7163 15.8401 25.6 15.8401Z" fill="#229CE1"/>
</g>
</svg>
